<svg viewBox="0 0 24 24" fill="none" xmlns="http://www.w3.org/2000/svg">
<path fill-rule="evenodd" clip-rule="evenodd" d="M5.25 5.813H12V18.188H5.25C5.17604 18.1883 5.10276 18.1739 5.03439 18.1457C4.96602 18.1175 4.90391 18.076 4.85166 18.0236C4.79941 17.9713 4.75804 17.9091 4.72995 17.8407C4.70186 17.7723 4.6876 17.699 4.688 17.625V6.375C4.688 6.065 4.939 5.813 5.25 5.813ZM5.25 4.125C4.65326 4.125 4.08097 4.36205 3.65901 4.78401C3.23705 5.20597 3 5.77826 3 6.375V17.625C3 18.2217 3.23705 18.794 3.65901 19.216C4.08097 19.6379 4.65326 19.875 5.25 19.875H18.75C19.3467 19.875 19.919 19.6379 20.341 19.216C20.7629 18.794 21 18.2217 21 17.625V6.375C21 5.77826 20.7629 5.20597 20.341 4.78401C19.919 4.36205 19.3467 4.125 18.75 4.125H5.25ZM15.094 8.063C15.094 7.752 15.346 7.5 15.656 7.5H17.344C17.4932 7.5 17.6363 7.55926 17.7417 7.66475C17.8472 7.77024 17.9065 7.91332 17.9065 8.0625C17.9065 8.21168 17.8472 8.35476 17.7417 8.46025C17.6363 8.56574 17.4932 8.625 17.344 8.625H15.656C15.5821 8.62526 15.5089 8.61091 15.4406 8.58276C15.3723 8.55461 15.3103 8.51322 15.258 8.46098C15.2058 8.40874 15.1644 8.34668 15.1362 8.27838C15.1081 8.21008 15.0937 8.13688 15.094 8.063ZM15.656 9.75C15.5068 9.75 15.3637 9.80926 15.2583 9.91475C15.1528 10.0202 15.0935 10.1633 15.0935 10.3125C15.0935 10.4617 15.1528 10.6048 15.2583 10.7102C15.3637 10.8157 15.5068 10.875 15.656 10.875H17.344C17.4932 10.875 17.6363 10.8157 17.7417 10.7102C17.8472 10.6048 17.9065 10.4617 17.9065 10.3125C17.9065 10.1633 17.8472 10.0202 17.7417 9.91475C17.6363 9.80926 17.4932 9.75 17.344 9.75H15.656ZM15.094 12.563C15.094 12.252 15.346 12 15.656 12H17.344C17.4932 12 17.6363 12.0593 17.7417 12.1648C17.8472 12.2702 17.9065 12.4133 17.9065 12.5625C17.9065 12.7117 17.8472 12.8548 17.7417 12.9602C17.6363 13.0657 17.4932 13.125 17.344 13.125H15.656C15.5821 13.1253 15.5089 13.1109 15.4406 13.0828C15.3723 13.0546 15.3103 13.0132 15.258 12.961C15.2058 12.9087 15.1644 12.8467 15.1362 12.7784C15.1081 12.7101 15.0937 12.6369 15.094 12.563Z" fill="currentColor"/>
</svg>
